<svg width="116" height="24" viewBox="0 0 166 36" fill="none" xmlns="http://www.w3.org/2000/svg">
<path d="M32.549 18.55C32.549 12.358 36.203 9.244 40.937 9.244C44.303 9.244 46.067 10.774 46.895 12.106H47.255V9.658H50.333V27.28C50.333 32.59 47.543 35.632 41.711 35.632C36.005 35.632 33.341 32.734 33.035 29.638V29.098H35.969C36.149 31.258 37.751 33.22 41.657 33.22C45.581 33.22 47.165 31.204 47.165 27.406V25.102H46.805C45.923 26.416 44.213 27.838 40.937 27.838C36.203 27.838 32.549 24.742 32.549 18.55ZM35.753 18.55C35.753 22.942 38.075 25.354 41.513 25.354C44.951 25.354 47.273 22.942 47.273 18.55C47.273 14.158 44.951 11.746 41.513 11.746C38.075 11.746 35.753 14.158 35.753 18.55ZM54.8996 28V9.658H57.9776V12.25H58.3376C59.1116 10.684 60.6236 9.118 64.3856 9.496V12.232C60.5876 11.836 58.0676 13.168 58.0676 17.776V28H54.8996ZM69.5359 14.95H66.6019V14.41C66.9799 11.206 69.9139 9.226 74.3239 9.226C78.7339 9.226 81.6319 11.206 81.6319 15.778V24.274C81.6319 25.21 82.0819 25.678 83.0179 25.678H84.0439V28H82.4959C80.2819 28 79.2199 26.866 79.1119 25.156H78.7519C77.7979 26.92 76.0159 28.396 72.3619 28.396C68.4199 28.396 65.6659 26.182 65.6659 22.888C65.6659 19.288 68.4739 17.794 72.0379 17.452L76.2859 17.056C77.7979 16.912 78.6079 16.498 78.6079 15.094C78.6079 12.754 77.0419 11.584 74.2699 11.584C71.4979 11.584 69.6439 12.718 69.5359 14.95ZM68.7979 22.78C68.7979 24.742 70.4359 26.038 72.8659 26.038C75.7819 26.038 78.6259 24.328 78.6259 19.9V18.676H78.2659C77.7079 19.018 77.1679 19.216 75.5479 19.378L72.7579 19.648C70.2379 19.918 68.7979 20.782 68.7979 22.78ZM103.444 2.08V28H100.366V25.39H100.006C99.1597 26.866 97.3417 28.414 93.8677 28.414C89.0977 28.414 85.4437 25.174 85.4437 18.838C85.4437 12.484 89.0977 9.244 93.8677 9.244C97.3417 9.244 99.1057 10.792 99.9157 12.142H100.276V2.08H103.444ZM100.384 18.838C100.384 14.266 98.0077 11.746 94.5157 11.746C91.0237 11.746 88.6477 14.266 88.6477 18.838C88.6477 23.392 91.0237 25.912 94.5157 25.912C98.0077 25.912 100.384 23.392 100.384 18.838ZM107.951 6.328V2.548H111.209V6.328H107.951ZM108.005 28V9.658H111.173V28H108.005ZM114.625 18.82C114.625 12.592 118.027 9.226 123.409 9.226C128.827 9.226 131.761 12.628 131.761 18.028V19.504H117.703C117.775 23.536 119.881 26.038 123.409 26.038C126.757 26.038 128.251 24.022 128.539 22.258H131.365V22.798C130.969 25.048 128.917 28.432 123.427 28.432C118.045 28.432 114.625 25.066 114.625 18.82ZM117.757 17.2H128.719C128.683 13.852 126.919 11.62 123.391 11.62C119.935 11.62 118.009 13.888 117.757 17.2ZM135.218 28V9.658H138.296V12.25H138.656C139.268 11.08 140.816 9.244 144.596 9.244C148.628 9.244 151.292 11.458 151.292 15.67V28H148.124V15.886C148.124 13.006 146.414 11.728 143.84 11.728C140.906 11.728 138.386 13.6 138.386 17.416V28H135.218ZM153.49 11.98V9.658H157.144V4.6H160.294V9.658H164.524V11.98H160.294V23.95C160.294 24.976 160.762 25.552 161.914 25.552H164.416V28H161.338C158.656 28 157.144 26.668 157.144 24.004V11.98H153.49Z" fill="#212121"/>
<path d="M23.0747 2.99997L13.4987 28.704H9.63867L19.2147 2.99997H23.0747Z" fill="#212121"/>
<path d="M0 29V25H4V29H0Z" fill="#212121"/>
</svg>
